<svg id="visual" viewBox="0 0 900 600" width="900" height="600" xmlns="http://www.w3.org/2000/svg" xmlns:xlink="http://www.w3.org/1999/xlink" version="1.1"><rect x="0" y="0" width="900" height="600" fill="#fff"></rect><defs><linearGradient id="grad1_0" x1="33.3%" y1="0%" x2="100%" y2="100%"><stop offset="20%" stop-color="#4776e6" stop-opacity="1"></stop><stop offset="80%" stop-color="#4776e6" stop-opacity="1"></stop></linearGradient></defs><defs><linearGradient id="grad1_1" x1="33.3%" y1="0%" x2="100%" y2="100%"><stop offset="20%" stop-color="#4776e6" stop-opacity="1"></stop><stop offset="80%" stop-color="#afb8f4" stop-opacity="1"></stop></linearGradient></defs><defs><linearGradient id="grad1_2" x1="33.3%" y1="0%" x2="100%" y2="100%"><stop offset="20%" stop-color="#ffffff" stop-opacity="1"></stop><stop offset="80%" stop-color="#afb8f4" stop-opacity="1"></stop></linearGradient></defs><defs><linearGradient id="grad2_0" x1="0%" y1="0%" x2="66.7%" y2="100%"><stop offset="20%" stop-color="#4776e6" stop-opacity="1"></stop><stop offset="80%" stop-color="#4776e6" stop-opacity="1"></stop></linearGradient></defs><defs><linearGradient id="grad2_1" x1="0%" y1="0%" x2="66.7%" y2="100%"><stop offset="20%" stop-color="#afb8f4" stop-opacity="1"></stop><stop offset="80%" stop-color="#4776e6" stop-opacity="1"></stop></linearGradient></defs><defs><linearGradient id="grad2_2" x1="0%" y1="0%" x2="66.7%" y2="100%"><stop offset="20%" stop-color="#afb8f4" stop-opacity="1"></stop><stop offset="80%" stop-color="#ffffff" stop-opacity="1"></stop></linearGradient></defs><g transform="translate(900, 0)"><path d="M0 378.6C-50.8 375.1 -101.5 371.5 -144.9 349.8C-188.2 328 -224.2 288 -247.5 247.5C-270.8 207 -281.4 166.1 -301.2 124.8C-320.9 83.4 -349.8 41.7 -378.6 0L0 0Z" fill="#d8dbfa"></path><path d="M0 252.4C-33.8 250 -67.7 247.7 -96.6 233.2C-125.5 218.7 -149.5 192 -165 165C-180.5 138 -187.6 110.7 -200.8 83.2C-214 55.6 -233.2 27.8 -252.4 0L0 0Z" fill="#8296ed"></path><path d="M0 126.2C-16.9 125 -33.8 123.8 -48.3 116.6C-62.7 109.3 -74.7 96 -82.5 82.5C-90.3 69 -93.8 55.4 -100.4 41.6C-107 27.8 -116.6 13.9 -126.2 0L0 0Z" fill="#4776e6"></path></g><g transform="translate(0, 600)"><path d="M0 -378.6C49.1 -373.4 98.3 -368.2 144.9 -349.8C191.5 -331.3 235.5 -299.7 259.5 -259.5C283.5 -219.3 287.5 -170.6 304 -125.9C320.5 -81.2 349.5 -40.6 378.6 0L0 0Z" fill="#d8dbfa"></path><path d="M0 -252.4C32.8 -248.9 65.5 -245.5 96.6 -233.2C127.6 -220.9 157 -199.8 173 -173C189 -146.2 191.6 -113.7 202.6 -83.9C213.6 -54.2 233 -27.1 252.4 0L0 0Z" fill="#8296ed"></path><path d="M0 -126.2C16.4 -124.5 32.8 -122.7 48.3 -116.6C63.8 -110.4 78.5 -99.9 86.5 -86.5C94.5 -73.1 95.8 -56.9 101.3 -42C106.8 -27.1 116.5 -13.5 126.2 0L0 0Z" fill="#4776e6"></path></g></svg>